<svg xmlns="http://www.w3.org/2000/svg" viewBox="0 0 522.69 721.26"><defs><style>.cls-1{fill:#8dbf2b;}.cls-2{fill:#8cbe29;}.cls-3{fill:#191919;}</style></defs><g id="Capa_2" data-name="Capa 2"><g id="Capa_5" data-name="Capa 5"><path class="cls-1" d="M140.67,54.88c-4.12,5.77-35.68,51.28-15.12,77.76,10.7,13.79,33.94,20.35,49.68,13C194,136.79,187.86,114.81,212,95.92c16.84-13.21,35.5-14.74,41-15.12,8.46-.58,28.94-2,43.2,10.8,11.19,10,12.94,23.82,15.12,43.2,4.74,42.27-8.13,53.21,0,84.24,3.05,11.68,7.94,30.36,23.76,38.88,10.15,5.47,22.6,3.65,47.52,0,22.22-3.25,33.49-5,41-13,1.94-2,8.83-9.79,10.8-34.56,1.67-21.08-1.53-38-6.48-58.32-9.94-40.79-14.9-61.18-23.76-75.6-3.05-5-18.68-29.73-49.68-49.68A174.17,174.17,0,0,0,244.35.88c-12.08,1.24-38.77,4.29-67,21.6C168,28.24,153.17,37.35,140.67,54.88Z"/></g><g id="Capa_6" data-name="Capa 6"><path class="cls-1" d="M341.55,314.08c-8.09,13.84-5,35.76,6.48,43.2,13.53,8.78,29.13-8.82,45.36,0,13.43,7.3,15.95,26.55,17.28,36.72.69,5.3,4.45,34.07-13,51.84-13.31,13.58-28.9,10.45-32.4,21.6-3.67,11.67,10.21,25.35,10.8,25.92,22.82,22,75,17.7,108-8.64,29-23.17,34.92-56.7,36.72-67,2-11.62,8.28-57.53-23.76-95-5.1-6-28.54-32.07-67-36.72-22.53-2.73-39.26,3.24-60.48,10.8C348.24,304.42,343.62,310.53,341.55,314.08Z"/></g><g id="Capa_7" data-name="Capa 7"><path class="cls-2" d="M177.39,223.36c-9.59,20.74-43.78,7.92-60.48,30.24-12.44,16.61-10.7,46.71,2.16,62.64,7.46,9.24,15.82,10.18,23.76,23.76,3.59,6.14,10.25,17.54,6.48,25.92-7.3,16.22-49.89,12.89-75.6,6.48-15.88-4-29.89-7.45-43.2-19.44C1.63,327,4.05,286.3,4.59,277.36c2-34.05,19.94-56.88,28.08-67,8.91-11,25-31,54-38.88,24.77-6.74,45.25-.93,56.16,2.16,11.75,3.33,21.07,6.12,28.08,15.12C177.53,197.31,182.61,212.06,177.39,223.36Z"/></g><g id="Capa_8" data-name="Capa 8"><path class="cls-1" d="M86.67,415.6c-24.08,0-58.22,11.67-75.6,38.88C1.25,469.84.92,485.6.27,517.12c-.69,33-1.12,53.56,13,71.28,11.37,14.32,26.08,19,47.52,25.92,15.16,4.86,60.41,19.38,75.6,0,7-8.88,4.8-21.31,4.32-23.76-5.06-25.72-36.22-24.93-47.52-51.84-7.56-18-4-43.09,8.64-51.84,12.29-8.5,24.81,4.21,47.52-4.32,4-1.52,23.14-8.7,25.92-23.76,2.6-14.14-10.43-28.37-21.6-34.56-4.57-2.53-8.6-3.59-41-6.48C96.43,416.32,88.35,415.6,86.67,415.6Z"/></g><g id="Capa_9" data-name="Capa 9"><path class="cls-3" d="M237.87,117.52c-9.78,10.74-16.47,27.36-13,86.4,3.4,57.38,12,80.62,2.16,86.4-15,8.78-48.58-36.9-69.12-25.92-7.66,4.09-11.66,15.06-10.8,23.76,2.1,21.31,32.93,24.07,60.48,58.32,8.13,10.11,12.43,18.56,17.28,28.08,33.45,65.71,17.82,166.61-6.48,170.64-17.27,2.86-33.32-44.14-51.84-38.88-7.92,2.25-14,12.91-13,21.6,1.56,12.61,17.62,16.06,45.12,33.84,25.18,16.29,37.78,24.43,44.16,38.88,9.91,22.44,3.41,55.7-15.84,71-15.22,12.12-45.83,19-70.08,14.4-4.91-.93-14.14-3.19-18.24,1.44-4,4.47-1.88,13.93,1.92,19.68,7.84,11.9,25.83,12.28,45.36,13,48.85,1.71,97.88-2.45,146.64,1A32.59,32.59,0,0,0,350.19,718c9.82-5,19.23-17.22,17-25.52-4.29-16-47.39-.64-72.45-23.68-15-13.79-15.28-44.63-15.84-106.32-.43-47.13,3.58-41.58,2.16-79.92-1.63-43.72-7.18-59.89,3.12-68.16,17.82-14.32,55.34,17.3,72.48,1.2,6.8-6.39,8.54-18.58,4.32-23.76-6-7.36-22.12,4.82-47.52,0-5.56-1-20.06-3.8-30.24-15.12-7.87-8.74-11.18-20.39-11.34-40.79-.29-36.19,14.64-67.37,11.13-68.8-.82-.33-1.55,1.39-3.15,1.35-5.55-.14-9.29-21-11.52-34.08-6.46-37.92-9.69-56.88-7.68-63.84,5.4-18.7,16.2-21.48,18.24-42.24.51-5.23,2.07-20.91-5.76-25.68C264.69,97.49,247.74,106.66,237.87,117.52Z"/></g></g></svg>